<svg width="429" height="136" viewBox="0 0 429 136" fill="none" xmlns="http://www.w3.org/2000/svg">
<path d="M129.665 66.735L129.57 55.335H158.45C158.767 55.905 159.083 56.6967 159.4 57.71C159.717 58.66 159.875 59.705 159.875 60.845C159.875 62.8083 159.432 64.2967 158.545 65.31C157.658 66.26 156.455 66.735 154.935 66.735H129.665ZM142.11 55.335L142.3 66.735H113.325C113.008 66.165 112.692 65.405 112.375 64.455C112.058 63.4417 111.9 62.365 111.9 61.225C111.9 59.1983 112.343 57.71 113.23 56.76C114.117 55.81 115.32 55.335 116.84 55.335H142.11ZM128.715 64.17H142.775V112.905C142.142 113.032 141.223 113.19 140.02 113.38C138.817 113.57 137.55 113.665 136.22 113.665C133.497 113.665 131.565 113.19 130.425 112.24C129.285 111.227 128.715 109.485 128.715 107.015V64.17ZM168.7 73.1H182.38V112.335C181.81 112.525 180.955 112.715 179.815 112.905C178.675 113.095 177.472 113.19 176.205 113.19C173.862 113.19 172.025 112.525 170.695 111.195C169.365 109.802 168.7 107.965 168.7 105.685V73.1ZM182.38 95.33L168.7 95.235V62.84C168.7 60.56 169.365 58.755 170.695 57.425C172.025 56.0317 173.862 55.335 176.205 55.335C177.472 55.335 178.675 55.43 179.815 55.62C180.955 55.81 181.81 56 182.38 56.19V95.33ZM176.205 89.155V78.135H204.8C205.18 78.705 205.529 79.465 205.845 80.415C206.162 81.3017 206.32 82.315 206.32 83.455C206.32 85.4183 205.877 86.875 204.99 87.825C204.104 88.7117 202.9 89.155 201.38 89.155H176.205ZM176.205 113.19V101.98H208.03C208.347 102.55 208.664 103.342 208.98 104.355C209.297 105.305 209.455 106.35 209.455 107.49C209.455 109.453 209.012 110.91 208.125 111.86C207.302 112.747 206.099 113.19 204.515 113.19H176.205ZM176.205 66.545V55.335H207.555C207.935 55.905 208.284 56.665 208.6 57.615C208.917 58.565 209.075 59.61 209.075 60.75C209.075 62.65 208.632 64.1067 207.745 65.12C206.859 66.07 205.655 66.545 204.135 66.545H176.205ZM264.091 63.125C264.091 64.5183 263.711 65.7533 262.951 66.83C262.191 67.9067 261.336 68.73 260.386 69.3C258.802 68.2233 256.997 67.2733 254.971 66.45C253.007 65.5633 250.632 65.12 247.846 65.12C244.426 65.12 241.449 65.88 238.916 67.4C236.446 68.8567 234.546 71.01 233.216 73.86C231.886 76.71 231.221 80.1617 231.221 84.215C231.221 90.4217 232.772 95.14 235.876 98.37C238.979 101.537 243.191 103.12 248.511 103.12C251.297 103.12 253.672 102.74 255.636 101.98C257.662 101.22 259.499 100.365 261.146 99.415C262.096 100.048 262.856 100.935 263.426 102.075C264.059 103.152 264.376 104.387 264.376 105.78C264.376 106.983 264.059 108.123 263.426 109.2C262.792 110.213 261.684 111.1 260.101 111.86C258.897 112.493 257.187 113.095 254.971 113.665C252.754 114.298 249.999 114.615 246.706 114.615C241.132 114.615 236.066 113.538 231.506 111.385C227.009 109.168 223.431 105.812 220.771 101.315C218.111 96.8183 216.781 91.1183 216.781 84.215C216.781 77.6283 218.079 72.0867 220.676 67.59C223.336 63.03 226.882 59.5783 231.316 57.235C235.749 54.8917 240.626 53.72 245.946 53.72C249.682 53.72 252.881 54.1633 255.541 55.05C258.264 55.8733 260.354 57.0133 261.811 58.47C263.331 59.8633 264.091 61.415 264.091 63.125ZM274.462 71.2L287.192 71.01C287.445 73.67 287.635 76.33 287.762 78.99C287.889 81.65 287.952 84.2467 287.952 86.78C288.015 89.25 288.047 91.6567 288.047 94V112.905C287.477 113.032 286.59 113.19 285.387 113.38C284.184 113.57 282.98 113.665 281.777 113.665C279.117 113.665 277.217 113.19 276.077 112.24C275 111.29 274.462 109.643 274.462 107.3V71.2ZM324.812 96.945L311.987 97.135C311.544 92.4483 311.29 87.9833 311.227 83.74C311.164 79.4333 311.132 75.3483 311.132 71.485V55.24C311.765 55.1133 312.652 54.955 313.792 54.765C314.995 54.575 316.23 54.48 317.497 54.48C320.157 54.48 322.025 54.955 323.102 55.905C324.242 56.855 324.812 58.5017 324.812 60.845V96.945ZM324.812 92.48V83.835V111.29C323.989 111.987 322.849 112.557 321.392 113C319.935 113.443 318.225 113.665 316.262 113.665C314.172 113.665 312.209 113.348 310.372 112.715C308.599 112.018 307.11 110.498 305.907 108.155L294.032 85.735C293.272 84.2783 292.544 82.8533 291.847 81.46C291.15 80.0033 290.454 78.5783 289.757 77.185C289.124 75.7283 288.49 74.2717 287.857 72.815L274.462 75.855V57.805C275.222 56.7283 276.394 55.9367 277.977 55.43C279.56 54.86 281.239 54.575 283.012 54.575C285.102 54.575 287.065 54.9233 288.902 55.62C290.739 56.3167 292.227 57.805 293.367 60.085L305.337 82.6C306.097 83.9933 306.825 85.4183 307.522 86.875C308.219 88.3317 308.884 89.7883 309.517 91.245C310.214 92.6383 310.847 94.0633 311.417 95.52L324.812 92.48ZM361.373 67.02H360.803C360.106 69.0467 359.315 71.3583 358.428 73.955C357.605 76.4883 356.718 79.1483 355.768 81.935C354.818 84.6583 353.931 87.3817 353.108 90.105L351.493 98.18C351.113 99.3833 350.733 100.682 350.353 102.075C349.973 103.405 349.593 104.735 349.213 106.065C348.833 107.332 348.453 108.567 348.073 109.77C347.756 110.973 347.471 112.05 347.218 113C346.521 113.253 345.73 113.475 344.843 113.665C344.02 113.855 343.006 113.95 341.803 113.95C339.27 113.95 337.306 113.475 335.913 112.525C334.583 111.575 333.918 110.245 333.918 108.535C333.918 107.712 334.013 106.92 334.203 106.16C334.456 105.337 334.741 104.387 335.058 103.31C335.628 101.283 336.42 98.6867 337.433 95.52C338.51 92.29 339.681 88.8383 340.948 85.165C342.215 81.4917 343.481 77.85 344.748 74.24C346.078 70.5667 347.313 67.21 348.453 64.17C349.593 61.0667 350.511 58.5967 351.208 56.76C352.095 56.2533 353.456 55.7783 355.293 55.335C357.193 54.8283 359.061 54.575 360.898 54.575C363.558 54.575 365.933 54.955 368.023 55.715C370.113 56.475 371.411 57.71 371.918 59.42C373.185 62.7767 374.515 66.6717 375.908 71.105C377.365 75.5383 378.821 80.1617 380.278 84.975C381.798 89.7883 383.223 94.475 384.553 99.035C385.946 103.532 387.15 107.617 388.163 111.29C387.53 111.987 386.548 112.588 385.218 113.095C383.951 113.602 382.463 113.855 380.753 113.855C378.156 113.855 376.32 113.412 375.243 112.525C374.23 111.638 373.47 110.245 372.963 108.345L369.733 97.42L368.213 89.63C367.39 86.78 366.535 83.9933 365.648 81.27C364.825 78.4833 364.033 75.8867 363.273 73.48C362.576 71.01 361.943 68.8567 361.373 67.02ZM345.318 100.08L350.733 89.06H373.248L375.148 100.08H345.318Z" fill="black"/>
<path d="M18.511 33.0268C9.5 33.0268 4.62681e-06 41.5268 0 52.0268C-6.39321e-06 66.5354 12.5 71.5268 18.011 72.0268H33.0111H51.5111H70.0111L33.511 33.0268H18.511Z" fill="#E32E3A"/>
<path d="M33.0111 72.0268V108.027C34 116.527 40.4886 125.027 51.5 125.027C64 125.027 69.5 114.527 70.0111 108.027C70.3308 103.96 70.3444 82.3601 70.0111 72.0268H51.5111H33.0111Z" fill="#852780"/>
<path d="M70.0111 72.0268H84.0111C93 71.5268 103 65.2329 103 52.0268C103 39.0268 89.5 32.5268 84.0111 33.0268H48.511H33.511L70.0111 72.0268Z" fill="#F89A29"/>
<path d="M358.971 127.184C413.347 150.733 440.615 91.1449 412.567 54.6305" stroke="black" stroke-width="6" stroke-linecap="round"/>
<path d="M401.31 45.7141L398.691 42.0915L396.975 46.219C396.105 48.3136 394.93 51.5291 394.269 54.3513C393.945 55.7319 393.697 57.2086 393.75 58.4702C393.776 59.0939 393.882 59.8743 394.246 60.6065C394.652 61.4224 395.403 62.1968 396.549 62.4691C397.637 62.7277 398.904 62.7358 400.052 62.6583C401.242 62.5778 402.497 62.3905 403.646 62.155C404.789 61.9206 405.893 61.6253 406.775 61.3078C407.208 61.1519 407.658 60.9658 408.052 60.7462C408.248 60.6371 408.489 60.4871 408.724 60.2891C408.926 60.1189 409.319 59.7529 409.564 59.1654L410.1 57.8743L409.281 56.7412L401.31 45.7141Z" fill="#E32E3A" stroke="black" stroke-width="5"/>
<path d="M417.947 52.7667L420.481 55.9904L422.186 52.2615C423.147 50.1605 424.447 46.9311 425.186 44.0933C425.546 42.7085 425.83 41.2078 425.778 39.915C425.751 39.2722 425.636 38.461 425.228 37.7043C424.768 36.8513 423.966 36.1427 422.851 35.9045C421.724 35.6638 420.393 35.6593 419.158 35.7415C417.882 35.8263 416.533 36.0169 415.293 36.2554C414.059 36.4928 412.873 36.7892 411.932 37.1037C411.47 37.2583 410.999 37.4394 410.59 37.6495C410.388 37.7535 410.14 37.8954 409.898 38.0825C409.699 38.2369 409.273 38.5944 409 39.1918L408.366 40.578L409.308 41.7764L417.947 52.7667Z" fill="#E32E3A" stroke="black" stroke-width="5"/>
<path d="M419.453 63.2094C422.504 61.0156 423.531 57.3434 423.336 53.8359C423.139 50.2872 421.71 46.4418 419.249 43.0192C416.789 39.5967 413.599 37.0169 410.298 35.6998C407.035 34.398 403.227 34.2011 400.175 36.3949C397.124 38.5887 396.098 42.2609 396.292 45.7685C396.489 49.3171 397.918 53.1626 400.379 56.5851C402.839 60.0076 406.029 62.5874 409.33 63.9045C412.593 65.2063 416.401 65.4032 419.453 63.2094Z" fill="#F89A29" stroke="black" stroke-width="6"/>
</svg>
