<?xml version="1.0" encoding="utf-8"?>
<!-- Generator: Adobe Illustrator 27.5.0, SVG Export Plug-In . SVG Version: 6.00 Build 0)  -->
<svg version="1.1" id="Layer_1" xmlns="http://www.w3.org/2000/svg" xmlns:xlink="http://www.w3.org/1999/xlink" x="0px" y="0px"
	 viewBox="0 0 3000 3000" style="enable-background:new 0 0 3000 3000;" xml:space="preserve">
<path style="opacity:0.51;fill:#CBCFEA;" d="M858.853,584.716c-140.872,87.143-190.518,221.35-247.829,407.803
	c-56.765,117.613-192.846,169.201-295.423,250.028c-249.158,197.756-248.062,501.725-139.46,774.912
	c28.14,173.98-79.732,345.67-59.972,520.801c43.435,384.957,367.959,519.664,830.891,464.679
	c165.253-19.629,326.008-71.129,492.174-79.914c289.232-15.291,574.065,133.226,860.28,88.839
	c325.673-45.196,577.115-360.441,548.323-688.09c-11.456-160.598-81.562-310.092-133.854-462.375
	c-25.328-57.596-21.26-122.032,23.148-168.863c61.226-75.225,151.17-124.858,204.642-205.781
	c176.635-298.578-136.711-596.344-410.478-687.981c-141.26-59.146-289.156-105.37-419.614-185.58
	c-93.362-57.402-179.437-132.84-285.92-158.778c-163.476-39.82-323.522,42.213-483.619,61.838
	C1125.743,508.132,1003.929,494.972,858.853,584.716z"/>
<g>
	<path style="fill:#FFC6A8;" d="M678.757,1119.178c14.181,16.31,26.49,76.71,58.681,105.41c10.1,9.02,22.17,14.9,36.87,15.32
		c52.699,1.49,55.25-8.55,54.89-11.46c-0.01-0.1-0.02-0.2-0.04-0.28c-0.02-0.07-0.04-0.14-0.05-0.2c-0.01-0.05-0.021-0.09-0.04-0.13
		c-0.03-0.11-0.061-0.17-0.061-0.17l-2.31-8.27l-35.47-126.92l-12.82-16.82l-8.07-10.59l-73.67-96.65c-2.77-3.64-7.5-5.19-11.89-3.9
		l-6.021,1.76l62.98,94.56l4.98,7.47l5.109,7.68c0,0-0.42-0.13-1.189-0.34c-0.131-0.04-0.28-0.07-0.431-0.12
		c-0.14-0.03-0.29-0.07-0.439-0.11c-0.141-0.04-0.29-0.08-0.45-0.13c-0.271-0.07-0.561-0.14-0.87-0.22
		c-0.3-0.08-0.62-0.17-0.96-0.25c-0.07-0.02-0.14-0.04-0.21-0.06c-0.63-0.15-1.3-0.32-2.03-0.49c-1.64-0.39-3.52-0.81-5.54-1.22
		c-0.2-0.04-0.399-0.08-0.6-0.12s-0.4-0.08-0.601-0.12c-0.22-0.04-0.43-0.08-0.649-0.13c-0.4-0.07-0.8-0.14-1.21-0.22
		c-0.641-0.11-1.29-0.22-1.95-0.34c-0.42-0.06-0.84-0.13-1.27-0.2c-0.221-0.03-0.44-0.06-0.66-0.1c-0.87-0.13-1.761-0.25-2.65-0.36
		c-0.01,0-0.02,0-0.04-0.01c-2.8-0.35-5.64-0.59-8.34-0.63c-11.23-0.18-20.19,2.95-15.26,15.07c-0.76-0.23-30.19-9.43-14.41,18.41
		C692.067,1104.298,660.117,1097.738,678.757,1119.178z"/>
	<path style="fill:#EAA98C;" d="M703.937,1173.108c2.53,5.67,5.25,11.33,8.189,16.91c9.971,2.88,13.88-3.61,13.88-3.61
		c5.33,1.33,11.32-4.19,11.32-4.19c5.99,0.46,19.97-2.13,19.97-2.13c3.33,13.47,20.44,26.9,36.721,36.95
		c2.2,1.36,4.38,2.65,6.51,3.88c13.67,7.86,25.229,12.86,25.229,12.86c3.211-2.12,3.54-4.23,3.44-5.33c-0.01-0.1-0.02-0.2-0.04-0.28
		c-0.02-0.07-0.04-0.14-0.05-0.2c-0.01-0.05-0.021-0.09-0.04-0.13c-0.03-0.11-0.061-0.17-0.061-0.17l-2.31-8.27l-35.47-126.92
		l-12.82-16.82l-31.689-7.35l5.109,7.68c0,0-0.42-0.13-1.189-0.34c-0.131-0.04-0.28-0.07-0.431-0.12
		c-0.14-0.03-0.29-0.07-0.439-0.11c-0.141-0.04-0.29-0.08-0.45-0.13c-0.271-0.07-0.561-0.14-0.87-0.22
		c-0.3-0.08-0.62-0.17-0.96-0.25c-0.07-0.02-0.14-0.04-0.21-0.06c-0.63-0.15-1.3-0.32-2.03-0.49c-1.64-0.39-3.52-0.81-5.54-1.22
		c-0.2-0.04-0.399-0.08-0.6-0.12s-0.4-0.08-0.601-0.12c-0.22-0.04-0.43-0.08-0.649-0.13c-0.4-0.07-0.8-0.14-1.21-0.22
		c-0.641-0.11-1.29-0.22-1.95-0.34c-0.42-0.06-0.84-0.13-1.27-0.2c-0.221-0.03-0.44-0.06-0.66-0.1c-0.87-0.13-1.761-0.25-2.65-0.36
		c-0.01,0-0.02,0-0.04-0.01c-2.8-0.34-5.64-0.57-8.34-0.61c-1.85-0.03-3.63,0.03-5.3,0.21c1.99,5.45,3.99,12.5,4.689,20.41
		c1.561,17.53,29.07,14.41,38.38,23.34c9.32,8.94-1.77,36.33-6.21,38.09c-4.439,1.76-12.869,0-12.869,0s-2.221,6.23-5.761,9.43
		c-3.29,2.97-16.09,0.44-17.97,0.05c0.94,0.26,3.98,1.66-5.07,7.85C709.177,1171.888,706.547,1172.728,703.937,1173.108z"/>
	<path style="fill:#FFC6A8;" d="M721.737,1070.818c0,0,0,0.01,0,0.02c1.98,13.54,9.2,32.67,34.22,32.03
		c36.96-0.95-33.739,60,59.57,117.18c4.16,2.55,8.64,5.09,13.479,7.62l0.841-8.46l10.79-108.01c1.97-19.71-11.9-37.49-31.49-40.39
		l-38.811-5.74l-28.6-4.23l-20.61-3.05C721.127,1057.788,720.657,1063.478,721.737,1070.818z"/>
</g>
<ellipse transform="matrix(0.7071 -0.7071 0.7071 0.7071 86.7771 1184.5015)" style="fill:#8368F1;" cx="1473.208" cy="487.501" rx="187.526" ry="187.525"/>
<path style="fill:#FFFFFF;" d="M1509.575,522.262c-19.096,20.123-50.923,20.739-71.046,1.643
	c-10.061-9.445-15.606-22.792-15.606-36.55c0-27.72,22.587-50.307,50.307-50.307s50.307,22.587,50.307,50.307v14.99
	c0,8.418,6.776,14.989,14.989,14.989c8.418,0,14.989-6.776,14.989-14.989v-14.99c0-44.352-36.138-80.491-80.491-80.491
	s-80.491,36.138-80.491,80.491s36.139,80.491,80.491,80.491c10.472,0,20.944-2.054,30.8-6.16c4.928-2.464,11.088-0.616,13.552,4.517
	c2.464,5.134,0.616,11.088-4.518,13.552c-0.411,0.205-0.821,0.411-1.437,0.616c-51.333,21.355-110.264-3.08-131.413-54.414
	c-21.15-51.333,3.08-110.264,54.413-131.414c51.334-21.149,110.264,3.08,131.414,54.414c5.544,12.114,8.213,25.256,8.213,38.397
	v14.99c0,19.506-15.605,35.317-35.112,35.317C1527.234,537.868,1516.145,531.913,1509.575,522.262z M1473.436,517.54
	c16.632,0,30.184-13.552,30.184-30.184c0-16.632-13.552-30.184-30.184-30.184c-16.632,0-30.184,13.552-30.184,30.184
	C1443.252,503.988,1456.804,517.54,1473.436,517.54z"/>
<ellipse transform="matrix(0.7071 -0.7071 0.7071 0.7071 -212.0564 554.6927)" style="fill:#8368F1;" cx="563.545" cy="533.321" rx="187.525" ry="187.525"/>
<path style="fill:#FFFFFF;" d="M649.327,597.227c-13.154-3.842-51.164-22.493-55.503-18.626c-4.34,3.86-22.768,20.281-22.768,20.281
	c-12.184-2.753-33.322-19.933-44.418-32.392c-11.094-12.453-25.727-35.426-27.067-47.85c0,0,18.44-16.423,22.773-20.289
	c4.34-3.86-9.819-43.761-12.123-57.27c-2.303-13.503-24.011-11.672-33.413-9.129c-9.409,2.544-49.663,71.468,25.684,156.05
	c75.359,84.58,148.456,52.518,152.071,43.468C658.154,622.424,662.476,601.069,649.327,597.227z"/>
<ellipse transform="matrix(0.7071 -0.7071 0.7071 0.7071 329.0894 1829.5721)" style="fill:#8368F1;" cx="2373.034" cy="517.54" rx="187.526" ry="187.525"/>
<path style="fill:#FFFFFF;" d="M2373.555,390.34c-49.054,0-88.714,39.661-88.714,88.714c0,48.01,39.66,112.718,74.102,158.641
	c7.306,9.393,20.874,9.393,28.18,0c34.442-45.922,74.102-110.631,74.102-158.641C2461.225,430.001,2421.565,390.34,2373.555,390.34z
	 M2373.034,533.029c-28.947,0-52.412-23.466-52.412-52.412c0-28.946,23.466-52.412,52.412-52.412
	c28.946,0,52.412,23.466,52.412,52.412C2425.446,509.564,2401.98,533.029,2373.034,533.029z"/>
<g>
	<g>
		<polygon style="fill:#1F3C88;" points="1191.765,2998.721 1421.721,2998.721 1473.208,2292.747 1491.069,2781.172 
			1476.99,2998.721 1701.404,2998.721 1676.797,2060.782 1678.416,2021.78 1300.078,2028.983 1304.147,2071.935 1237.718,2802.111 
					"/>
		<path style="fill:#1F3C88;" d="M1476.991,2998.721h89.38l10.992-216.004c0,0-40.335-320.148-43.885-391.03
			c-3.55-70.881,96.205-118.28,96.205-118.28l-156.475,19.34l17.861,488.425L1476.991,2998.721z"/>
	</g>
</g>
<path style="fill:#F9B384;" d="M1589.03,1286.353c0,0-20.773,27.56-69.109,34.194c-48.337,6.635-101.419-26.877-101.419-26.877
	l-5.699-319.461c0,0,118.342,7.039,117.888,12.965C1530.236,993.099,1589.03,1286.353,1589.03,1286.353z"/>
<path style="opacity:0.15;" d="M1430.954,1010.12c-0.987-12.244-1.192-23.709-1.05-34.812c1.931,0.13,4.007,0.272,6.165,0.422
	c0.376,0.026,0.773,0.054,1.154,0.081c1.794,0.126,3.654,0.256,5.568,0.393c0.425,0.031,0.842,0.06,1.273,0.091
	c2.276,0.165,4.618,0.338,7.017,0.517c0.318,0.024,0.644,0.048,0.964,0.073c2.065,0.156,4.172,0.318,6.298,0.483
	c0.571,0.045,1.136,0.088,1.711,0.133c2.412,0.19,4.849,0.385,7.299,0.587c0.468,0.038,0.938,0.078,1.407,0.117
	c2.069,0.171,4.14,0.346,6.208,0.526c0.622,0.053,1.244,0.107,1.865,0.162c2.342,0.205,4.67,0.415,6.976,0.629
	c0.654,0.06,1.299,0.121,1.948,0.183c1.956,0.184,3.888,0.372,5.791,0.56c0.518,0.051,1.047,0.102,1.56,0.155
	c2.218,0.224,4.378,0.452,6.488,0.682c0.622,0.067,1.226,0.135,1.837,0.204c1.827,0.204,3.606,0.41,5.319,0.617
	c0.351,0.044,0.717,0.085,1.06,0.127c1.97,0.242,3.827,0.487,5.605,0.734c0.457,0.062,0.895,0.127,1.338,0.191
	c1.549,0.222,3.018,0.444,4.381,0.669c0.219,0.035,0.464,0.071,0.677,0.108c1.487,0.25,2.81,0.501,4.027,0.752
	c0.307,0.063,0.593,0.127,0.879,0.189c1.092,0.241,2.079,0.48,2.889,0.721c0.065,0.019,0.155,0.039,0.218,0.058
	c0.829,0.253,1.433,0.505,1.91,0.757c0.116,0.062,0.217,0.124,0.312,0.186c0.39,0.255,0.658,0.508,0.639,0.761
	c-0.31,4.05,27.045,142.262,44.4,229.392C1473.816,1221.671,1439.065,1110.724,1430.954,1010.12z"/>
<path style="fill:#F9B384;" d="M2160.859,1061.419l94.551-124.062c2.774-3.64,7.506-5.194,11.898-3.906l6.02,1.765l-73.074,109.707
	c0,0,56.202-16.706,45.337,9.917c0,0,30.4-9.806,14.426,18.392c0,0,31.948-6.556,13.312,14.88
	c-18.637,21.437-34.04,118.995-95.558,120.734c-61.518,1.738-54.696-12.244-54.696-12.244L2160.859,1061.419z"/>
<path style="fill:#EAA98C;" d="M2240.455,1139.156c-10.391-7.109-4.844-7.899-4.844-7.899s-14.643,3.204-18.192,0
	c-3.549-3.204-5.769-9.432-5.769-9.432s-8.43,1.758-12.868,0c-4.438-1.759-15.53-29.155-6.212-38.087
	c9.318-8.931,36.826-5.815,38.38-23.347c0.701-7.908,2.704-14.956,4.691-20.411c-13.831-1.453-35.389,4.942-35.389,4.942
	l5.113-7.677l-31.689,7.354l-12.819,16.819l-37.784,135.183c0,0-1.4,3.04,3.253,6.11l0,0c0,0,61.807-26.734,68.462-53.691
	c0,0,13.977,2.6,19.968,2.131c0,0,5.99,5.521,11.315,4.19c0,0,3.917,6.498,13.883,3.612c2.945-5.577,5.663-11.242,8.186-16.91
	C2245.538,1141.668,2242.901,1140.83,2240.455,1139.156z"/>
<path style="fill:#F9B384;" d="M2123.074,1196.603l-11.629-116.464c-1.969-19.713,11.896-37.496,31.494-40.395l88.011-13.021
	c0,0,3.773,46.072-34.83,45.081C2157.517,1070.814,2236.388,1137.361,2123.074,1196.603z"/>
<path style="fill:#8368F1;" d="M2245.163,1195.303c0,0,0,0-40.2,193.47s-263.26,221.86-355.56,196.72
	c-40.95-11.15-99.11-27.02-151.16-41.24l-21.45,516.53l-372.65,11.15l-24.66-260.3l-11.47-121.09l-14.49-152.9v-0.01l1.77-3.23
	l-17.98-220.81c30.22-20.47,66.16-32.3,103.92-33.11l296.6-6.39c43.73-0.95,86.4,13.05,121.18,39.57
	c52.25,39.84,135.6,93.02,198.66,83.98c99.04-14.2,140.48-210.9,140.48-210.9L2245.163,1195.303z"/>
<path style="opacity:0.15;" d="M1318.103,1419.603c0,0-7.76,247.44-38.62,392.03l-11.47-121.09l-14.49-152.9v-0.01l1.77-3.23
	L1318.103,1419.603z"/>
<polygon style="fill:#7866DD;" points="1610.163,1355.073 1509.643,1288.553 1500.803,1282.703 1494.303,1287.373 
	1393.793,1359.603 1406.443,1232.713 1500.883,1230.733 1593.133,1228.803 "/>
<path style="fill:#FFC6A8;" d="M1692.483,1682.956"/>
<path style="fill:#8368F1;" d="M706.917,1226.368c0,0,0,0,40.2,193.47s263.26,221.86,355.56,196.72
	c40.95-11.15,99.11-27.021,151.16-41.24l0.4,9.57l47.26-279.59c-39.22,1.75-77.04,15.49-108.43,39.43
	c-52.25,39.84-135.6,93.02-198.66,83.98c-99.04-14.2-140.479-210.9-140.479-210.9l-24.08,1.4l-0.841,8.46c0,0,0.03,0.06,0.061,0.17
	c0.02,0.04,0.03,0.08,0.04,0.13c0.01,0.06,0.03,0.13,0.05,0.2c0.021,0.08,0.03,0.18,0.04,0.28c0.36,2.91-2.19,12.95-54.89,11.46
	c-14.7-0.42-26.771-6.3-36.87-15.32L706.917,1226.368z"/>
<polygon style="fill:#8368F1;" points="728.897,1297.768 863.237,1281.318 864.537,1291.888 730.197,1308.348 "/>
<polygon style="fill:#8368F1;" points="723.877,1286.378 722.577,1275.808 856.917,1259.348 858.218,1269.928 "/>
<path d="M1386.669,1114.192c-60.609-0.257-74.632-36.769-102.677-123.684c-28.046-86.914-42.068-151.77,12.271-158.781
	c5.258-99.035,86.765-127.08,193.689-92.023c106.923,35.057,214.723-49.08,246.274,41.191
	c31.551,90.272-18.134,166.52-109.856,146.362L1386.669,1114.192z"/>
<path style="fill:#F9B384;" d="M1340.735,951.451c26.805,7.02,24.553,51.996,32.73,44.185
	c8.177-7.812,21.685-117.499,21.685-117.499s150.787,23.557,249.209-35.694c9.069,142.13,34.215,315.381-105.2,336.455
	c-139.416,21.074-191.146-133.8-191.146-133.8c-20.82,7.63-57.962-16.558-59.547-48.179
	C1286.883,965.299,1313.931,944.431,1340.735,951.451z"/>
<path style="fill:#34175B;" d="M1400.536,988.164c0-158.166,8.486-223.3,136.061-236.535
	c-17.402-15.398-210.892-40.108-179.423,213.875"/>
<g>
	<path style="fill:#34175B;" d="M1357.133,1070.743L1357.133,1070.743c39.393,0,71.328-31.934,71.328-71.328v-44.708
		c0-39.392-31.934-71.327-71.328-71.327l0,0c-39.393,0-71.328,31.934-71.328,71.327v44.708
		C1285.805,1038.808,1317.739,1070.743,1357.133,1070.743z"/>
	<path style="fill:#4F307F;" d="M1341.505,1036.326L1341.505,1036.326c26.003,0,47.082-21.079,47.082-47.081v-29.51
		c0-26.003-21.08-47.081-47.082-47.081l0,0c-26.002,0-47.081,21.078-47.081,47.081v29.51
		C1294.424,1015.246,1315.503,1036.326,1341.505,1036.326z"/>
</g>
<polygon style="opacity:0.15;" points="1509.643,1288.553 1509.643,2021.783 1494.303,2021.783 1494.303,1287.373 
	1500.803,1282.703 "/>
</svg>
