<svg id="Layer_1" enable-background="new 0 0 470 470" viewBox="0 0 470 470" xmlns="http://www.w3.org/2000/svg"><g><g><g><g><path d="m457.473 248.444c-4.333-8.609-4.341-18.796-.034-27.418 15.982-31.994 15.656-72.463-4.288-107.251-21.877-38.159-61.434-59.147-100.421-57.435-9.923.436-19.5-4.082-25.508-11.991-19.846-26.123-53.832-43.349-92.43-43.349-38.687 0-72.74 17.305-92.566 43.53-6.004 7.942-15.593 12.481-25.541 12.078-38.875-1.573-78.264 19.405-100.076 57.451-20.003 34.891-20.272 75.497-4.145 107.535 4.333 8.609 4.341 18.796.034 27.418-15.982 31.994-15.656 72.463 4.288 107.25 21.877 38.159 61.434 59.147 100.421 57.435 9.923-.436 19.5 4.082 25.508 11.991 19.846 26.124 53.832 43.349 92.431 43.349 38.687 0 72.74-17.305 92.566-43.53 6.004-7.942 15.593-12.481 25.541-12.078 38.875 1.573 78.264-19.405 100.076-57.451 20.002-34.89 20.271-75.496 4.144-107.534z" fill="#e6edff"/></g></g><g><path d="m32.327 192.34-5.811 1.231 6.72 1.906c3.539 1.004 6.242 3.87 7.036 7.462l1.246 5.634 1.246-5.634c.794-3.592 3.497-6.458 7.036-7.462l6.72-1.906-5.811-1.231c-3.762-.797-6.734-3.681-7.644-7.417l-1.547-6.353-1.547 6.353c-.91 3.736-3.882 6.619-7.644 7.417z" fill="#ef5264"/></g><g><path d="m373.797 308.446-5.811 1.231 6.72 1.906c3.539 1.004 6.242 3.87 7.036 7.462l1.246 5.634 1.246-5.634c.794-3.592 3.497-6.458 7.036-7.462l6.72-1.906-5.811-1.231c-3.762-.797-6.734-3.681-7.644-7.417l-1.547-6.353-1.547 6.353c-.91 3.736-3.882 6.62-7.644 7.417z" fill="#f6b545"/></g></g><g><g><g><g id="XMLID_56_"><path d="m15.825 280.432h84.839v138.011h-84.839z" fill="#8bb6ef"/></g><g><path d="m35.828 358.438v-78.006h-20.003v138.011h84.839v-20.002h-24.831c-22.094 0-40.005-17.91-40.005-40.003z" fill="#8388ef"/></g></g><g><g id="XMLID_54_"><path d="m451.776 344.084c-5.614-11.351-19.49-15.832-30.683-9.907l-89.308 47.269h-41.183c-11.597 0-22.711 4.643-30.861 12.893 8.15-8.25 19.264-12.893 30.861-12.893h5.649c14.176 0 25.662-11.504 25.638-25.679-.023-14.142-11.495-25.595-25.638-25.595h-67.875l-34.971-25.024c-6.79-4.859-14.931-7.471-23.281-7.471h-69.46v105.879l17.829.551 132.708 56.713c11.274 4.818 24.135 4.201 34.896-1.676l156.298-85.35c10.591-5.783 14.731-18.894 9.381-29.71z" fill="#ffdecf"/></g><g><path d="m452.621 346.028c-1.84 4.85-5.333 9.093-10.226 11.765l-156.298 85.35c-10.761 5.876-23.622 6.494-34.896 1.676l-108.251-46.262c-14.729-6.295-24.284-20.768-24.284-36.785v-64.095h-18.002v105.879l17.829.551 132.708 56.713c11.274 4.818 24.135 4.201 34.896-1.676l156.298-85.35c9.965-5.441 14.213-17.367 10.226-27.766z" fill="#fcb497"/></g></g><g><g><ellipse cx="58.245" cy="378.335" fill="#edeeef" rx="15.083" ry="15.027"/></g><g><path d="m58.245 399.362c-11.626 0-21.084-9.433-21.084-21.027 0-11.595 9.458-21.028 21.084-21.028s21.084 9.433 21.084 21.028c0 11.594-9.459 21.027-21.084 21.027zm0-30.054c-5.008 0-9.082 4.049-9.082 9.027 0 4.977 4.074 9.026 9.082 9.026s9.082-4.049 9.082-9.026-4.074-9.027-9.082-9.027z" fill="#310e31"/></g></g></g><g id="XMLID_39_"><g id="XMLID_41_"><path d="m453.717 135.494h-20.564c-2.419-14.484-8.468-28.364-16.331-40.434l14.516-14.484c3.629-3.621 3.629-9.052.605-13.277l-17.54-18.105c-3.629-3.621-9.073-3.621-13.306-.603l-14.516 14.484c-11.492-7.845-25.403-13.88-39.919-16.898v-20.52c0-5.431-4.234-9.656-9.072-9.656h-25.403c-4.839.603-9.072 4.224-9.072 9.656v21.123c-14.516 2.414-28.427 8.449-40.524 16.294l-14.517-14.484c-3.629-3.621-9.073-3.621-13.306-.604l-18.145 17.501c-3.629 3.621-3.629 9.052-.605 13.277l14.516 14.484c-7.863 11.466-13.911 25.347-16.935 39.831h-20.564c-4.839.604-9.072 4.224-9.072 9.656v25.347c.605 4.828 4.234 9.052 9.677 9.052h20.564c2.419 14.484 8.468 28.364 16.331 40.434l-14.516 14.484c-3.629 3.621-3.629 9.052-.605 13.277l17.54 18.105c3.629 3.621 9.072 3.621 13.306.603l14.516-14.484c11.492 7.845 25.403 13.88 39.919 16.898v20.519c.605 4.828 4.234 9.052 9.677 9.052h25.403c4.839-.603 9.072-4.224 9.072-9.656v-20.519c14.516-2.414 28.427-8.449 40.524-16.294l14.516 14.484c3.629 3.621 9.073 3.621 13.306.603l18.145-17.501c3.629-3.621 3.629-9.052.605-13.277l-14.516-14.484c7.863-11.466 13.911-25.347 16.935-39.831h20.564c4.839-.604 9.072-4.224 9.072-9.656v-25.347c-.604-4.826-4.233-9.05-10.281-9.05z" fill="#fff"/></g><g><path d="m315.696 281.023v-21.963c0-2.784-1.921-5.198-4.631-5.835-17.661-4.149-32.826-10.572-48.068-20.394-2.373-1.529-5.491-1.206-7.489.788l-15.536 15.502-9.742-10.055 16.12-16.084c1.97-1.966 2.323-5.031.86-7.399-9.601-15.537-15.861-30.691-19.413-48.581-.56-2.821-3.013-4.867-5.89-4.867h-22.943v-14.053h22.022c2.782 0 5.195-1.918 5.834-4.625 4.164-17.642 10.609-32.769 20.453-47.978 1.539-2.378 1.215-5.508-.79-7.509l-15.513-15.478 10.078-9.72 16.143 16.106c1.964 1.959 5.017 2.311 7.38.857 15.571-9.58 30.765-15.818 48.673-19.358 2.823-.558 4.872-3.012 4.872-5.89v-23.484h28.493v-5c0-5.523-4.478-10.001-10.001-10.001h-24.421c-4.839.604-9.073 4.224-9.073 9.656v21.122c-14.516 2.414-28.427 8.449-40.524 16.294l-14.516-14.484c-3.629-3.621-9.073-3.621-13.306-.604l-18.145 17.501c-3.629 3.621-3.629 9.052-.605 13.277l14.516 14.484c-7.863 11.466-13.911 25.347-16.935 39.831h-20.564c-4.839.604-9.073 4.224-9.073 9.656v25.347c.605 4.828 4.234 9.052 9.677 9.052h20.564c2.419 14.484 8.468 28.364 16.331 40.434l-14.516 14.484c-3.629 3.621-3.629 9.053-.605 13.277l17.54 18.105c3.629 3.621 9.072 3.621 13.306.604l14.516-14.484c11.492 7.845 25.403 13.88 39.919 16.898v20.519c.605 4.828 4.234 9.052 9.677 9.052h24.443c5.524 0 10.001-4.478 10.001-10.001v-5h-29.119z" fill="#edeeef"/></g><g><g><g><path d="m388.989 125.341h-130.017v78.006c0 5.523 4.478 10.001 10.001 10.001h110.015c5.524 0 10.001-4.478 10.001-10.001z" fill="#ef8bbd"/></g><g><path d="m276.974 175.345v-50.004h-18.002v78.006c0 5.523 4.478 10.001 10.001 10.001h110.015c5.524 0 10.001-4.478 10.001-10.001v-8.001h-92.012c-11.048 0-20.003-8.955-20.003-20.001z" fill="#e068bd"/></g></g><g><g><path d="m385.989 115.34h-124.017c-4.419 0-8.001 3.582-8.001 8.001v19.349c0 2.738 1.854 5.129 4.506 5.811l65.503 16.843 65.503-16.843c2.652-.682 4.506-3.073 4.506-5.811v-19.349c.001-4.419-3.581-8.001-8-8.001z" fill="#bec3c7"/></g><g><path d="m271.973 115.34h-10.001c-4.419 0-8.001 3.582-8.001 8.001v19.349c0 2.738 1.854 5.129 4.506 5.811l13.496 3.47z" fill="#abafb2"/></g></g><g><path d="m310.572 151.936h26.817v26.816h-26.817z" fill="#fff"/></g><path d="m385.989 109.339h-29.004v-12.662c0-8.823-7.179-16.001-16.002-16.001h-34.005c-8.823 0-16.002 7.178-16.002 16.001v12.662h-29.004c-7.721 0-14.002 6.281-14.002 14.001v19.349c0 3.952 1.934 7.532 5.001 9.737v50.92c0 8.823 7.179 16.001 16.002 16.001h110.015c8.823 0 16.002-7.178 16.002-16.001v-50.92c3.066-2.205 5.001-5.786 5.001-9.737v-19.349c0-7.72-6.282-14.001-14.002-14.001zm-83.012-12.662c0-2.206 1.795-4 4.001-4h34.005c2.206 0 4.001 1.795 4.001 4v12.662h-42.006v-12.662zm80.011 106.67c0 2.206-1.795 4-4.001 4h-110.014c-2.206 0-4.001-1.795-4.001-4v-46.98l39.599 10.182v12.203c0 3.314 2.687 6 6.001 6h26.817c3.314 0 6.001-2.687 6.001-6v-12.203l39.599-10.182v46.98zm-66.415-30.596v-14.815h14.815v14.815zm71.416-30.061-44.599 11.468v-2.221c0-3.314-2.687-6-6.001-6h-26.817c-3.314 0-6.001 2.687-6.001 6v2.221l-44.599-11.468v-19.349c0-1.103.897-2 2-2h124.017c1.103 0 2 .897 2 2z" fill="#310e31"/></g></g><g><g><g><path d="m139.967 94.617-9.423-5.383c.745-3.628 1.138-7.382 1.138-11.228 0-3.845-.393-7.6-1.138-11.228l9.423-5.383c3.862-2.206 5.184-7.138 2.942-10.979l-9.894-16.954c-2.213-3.792-7.067-5.092-10.879-2.915l-9.57 5.467c-5.653-4.957-12.312-8.809-19.638-11.228v-10.785c0-4.418-3.582-8.001-8.001-8.001h-19.916c-4.419 0-8.001 3.582-8.001 8.001v10.786c-7.326 2.419-13.985 6.271-19.638 11.228l-9.571-5.467c-3.812-2.177-8.667-.877-10.879 2.915l-9.893 16.953c-2.242 3.841-.92 8.773 2.942 10.979l9.423 5.382c-.745 3.628-1.138 7.383-1.138 11.228 0 3.846.393 7.6 1.138 11.228l-9.423 5.382c-3.862 2.206-5.184 7.138-2.942 10.979l9.894 16.954c2.213 3.792 7.067 5.092 10.879 2.915l9.571-5.467c5.653 4.957 12.312 8.809 19.638 11.228v10.786c0 4.419 3.582 8.001 8.001 8.001h19.916c4.419 0 8.001-3.582 8.001-8.001v-10.786c7.326-2.419 13.985-6.271 19.638-11.228l9.571 5.467c3.812 2.177 8.667.877 10.879-2.915l9.894-16.954c2.24-3.839.918-8.771-2.944-10.977z" fill="#fef2a8"/></g><g><g><path d="m68.012 139.011v-15.738l-7.559-2.496c-5.829-1.925-11.211-5.003-15.826-9.05l-5.899-5.173-13.802 7.884-6.869-11.771 13.717-7.835-1.603-7.81c-.606-2.951-.913-5.985-.913-9.016s.307-6.064.913-9.016l1.603-7.81-13.717-7.835 6.869-11.771 13.801 7.884 5.893-5.168c4.619-4.051 10.005-7.131 15.839-9.057l7.552-2.494v-15.738h24.916v-3c.001-4.418-3.581-8.001-8-8.001h-19.916c-4.419 0-8.001 3.582-8.001 8.001v10.786c-7.326 2.419-13.985 6.271-19.638 11.228l-9.571-5.467c-3.812-2.177-8.667-.877-10.879 2.915l-9.893 16.953c-2.242 3.841-.92 8.773 2.942 10.979l9.423 5.382c-.745 3.628-1.138 7.382-1.138 11.228s.393 7.6 1.138 11.228l-9.423 5.382c-3.862 2.206-5.184 7.138-2.942 10.979l9.894 16.954c2.213 3.792 7.067 5.092 10.879 2.915l9.571-5.467c5.653 4.957 12.312 8.809 19.638 11.228v10.786c0 4.419 3.582 8.001 8.001 8.001h19.916c4.419 0 8.001-3.582 8.001-8.001v-3h-24.917z" fill="#eeb6a8"/></g></g></g><g><path d="m74.969 97.986-16.165 8.84c-2.925 1.6-6.409-.871-5.867-4.16l3.127-18.968-13.39-13.578c-2.295-2.327-.982-6.276 2.251-6.764l18.361-2.775 8.069-17.008c1.446-3.048 5.783-3.048 7.229 0l8.069 17.008 18.361 2.775c3.232.489 4.546 4.437 2.251 6.764l-13.392 13.579 3.127 18.968c.542 3.29-2.942 5.76-5.867 4.16z" fill="#fff"/></g><g><path d="m93.062 113.33c-1.643 0-3.292-.41-4.807-1.239l-13.285-7.265-13.285 7.265c-7.086 3.876-15.992-2.356-14.668-10.401l2.631-15.953-11.246-11.403c-5.562-5.639-2.276-15.716 5.626-16.911l15.204-2.299 6.701-14.124c3.503-7.381 14.535-7.455 18.072 0l6.701 14.124 15.205 2.299c7.832 1.183 11.238 11.221 5.626 16.911l-11.246 11.403 2.63 15.953c.975 5.908-3.888 11.639-9.859 11.64zm-43.358-44.628 10.634 10.783c1.348 1.367 1.961 3.296 1.648 5.189l-2.459 14.918 12.564-6.871c1.795-.982 3.965-.982 5.759 0l12.563 6.871-2.459-14.918c-.313-1.894.3-3.823 1.648-5.189l10.634-10.783-14.479-2.189c-1.973-.298-3.669-1.558-4.525-3.361l-6.262-13.199-6.262 13.199c-.856 1.803-2.551 3.063-4.525 3.361z" fill="#310e31"/></g></g><g><g id="XMLID_38_"><path d="m122.953 261.021c24.817 0 45.006-20.188 45.006-45.004s-20.19-45.004-45.006-45.004-45.006 20.188-45.006 45.004 20.19 45.004 45.006 45.004z" fill="#78eac4"/></g><g><path d="m97.743 189.122v-10.366c-12.951 8.79-21.102 24.145-19.623 41.244 1.823 21.081 18.449 38.259 39.467 40.708 14.948 1.741 28.662-3.906 37.999-13.746-31.946 0-57.843-25.896-57.843-57.84z" fill="#71afc4"/></g><g id="XMLID_1_"><path d="m122.953 267.022c-28.125 0-51.007-22.88-51.007-51.004s22.882-51.004 51.007-51.004 51.007 22.88 51.007 51.004-22.881 51.004-51.007 51.004zm0-90.008c-21.508 0-39.005 17.497-39.005 39.003s17.497 39.003 39.005 39.003 39.005-17.497 39.005-39.003-17.497-39.003-39.005-39.003z" fill="#310e31"/></g><g><path d="m115.267 236.96c-1.641 0-3.531-.893-4.568-2.109l-11.524-13.523c-2.15-2.523-1.847-6.31.675-8.459 2.522-2.151 6.309-1.847 8.46.675l7.08 8.308 22.312-24.79c2.218-2.464 6.012-2.662 8.475-.446 2.464 2.217 2.663 6.011.446 8.474l-26.896 29.883c-1.138 1.265-2.76 1.987-4.46 1.987z" fill="#310e31"/></g></g></g><g id="XMLID_40_"><path d="m335.774 302.025h-25.403c-8.042 0-14.631-6.052-15.64-14.379-.027-.223-.038-.45-.038-.674v-15.743c-11.691-2.95-22.983-7.723-33.117-13.996l-11.078 11.054c-.211.211-.438.41-.68.584-6.806 4.901-15.497 4.408-21.105-1.188-.024-.024-.048-.048-.071-.072l-17.54-18.104c-.187-.193-.365-.399-.522-.617-4.912-6.801-4.415-15.482 1.198-21.083l11.135-11.111c-6.483-10.835-11.136-22.276-13.652-33.56h-15.623c-7.94 0-15.678-6.826-15.678-15.053v-25.347c0-8.034 6.064-14.615 14.408-15.62.22-.026.443-.037.665-.037h15.794c2.955-11.659 7.734-22.918 14.016-33.026l-11.064-11.04c-5.78-5.768-4.996-16.397.677-21.843l18.145-17.501c5.845-5.637 16.207-4.817 21.711.675l11.148 11.123c10.864-6.474 22.339-11.121 33.652-13.631v-16.179c0-8.035 6.065-14.616 14.409-15.62.22-.026.443-.037.664-.037h25.403c8.312 0 15.073 7.024 15.073 15.657v15.743c11.691 2.95 22.982 7.722 33.117 13.996l11.079-11.054c5.801-5.801 16.361-4.93 21.854.675l17.54 18.105c.187.193.365.399.523.617 4.912 6.802 4.414 15.482-1.2 21.083l-11.134 11.11c6.483 10.835 11.136 22.276 13.652 33.56h15.623c8.529 0 15.219 5.916 16.245 14.378.027.223.038.45.038.675v25.347c0 7.946-6.852 15.657-15.073 15.657h-15.794c-2.955 11.659-7.734 22.918-14.016 33.026l11.065 11.04c.212.212.413.44.589.683 4.917 6.803 4.421 15.487-1.195 21.089-.024.024-.048.047-.072.071l-18.145 17.501c-5.842 5.641-16.209 4.815-21.711-.675l-11.146-11.122c-10.864 6.475-22.337 11.121-33.652 13.632v15.574c0 8.035-6.065 14.616-14.409 15.62-.22.026-.443.037-.665.037zm-29.079-15.514c.179.922.925 3.512 3.676 3.512h24.945c.924-.178 3.529-.921 3.529-3.656v-20.519c0-2.908 2.078-5.433 4.948-5.908 12.764-2.112 26.014-7.445 38.312-15.421 2.375-1.541 5.502-1.213 7.504.787l14.516 14.484c1.591 1.587 3.764 1.118 5.276.171l17.726-17.097c1.534-1.56 1.088-3.676.166-5.164l-14.117-14.085c-2.06-2.056-2.311-5.275-.666-7.676 7.634-11.146 13.153-24.129 15.965-37.555.587-2.805 3.022-4.836 5.887-4.836h20.106c.925-.178 3.53-.921 3.53-3.656v-24.902c-.228-1.249-1.084-3.495-4.281-3.495h-20.564c-2.91 0-5.431-2.08-5.908-4.95-2.114-12.716-7.448-25.916-15.425-38.172-1.558-2.394-1.257-5.543.764-7.561l14.516-14.484c1.58-1.576 1.114-3.729.171-5.228l-17.135-17.686c-1.576-1.542-3.71-1.092-5.211-.166l-14.106 14.074c-2.06 2.056-5.277 2.306-7.682.667-11.171-7.614-24.182-13.12-37.635-15.925-2.807-.585-4.841-3.021-4.841-5.888v-20.519c0-2.154-1.619-3.656-3.072-3.656h-24.945c-.924.178-3.529.921-3.529 3.656v21.123c0 2.909-2.078 5.434-4.948 5.908-12.763 2.111-26.013 7.444-38.311 15.42-2.375 1.541-5.502 1.212-7.504-.787l-14.516-14.484c-1.591-1.587-3.764-1.119-5.276-.171l-17.727 17.098c-1.533 1.561-1.087 3.676-.166 5.164l14.116 14.085c2.06 2.056 2.311 5.275.666 7.677-7.634 11.146-13.153 24.13-15.964 37.555-.587 2.805-3.022 4.836-5.887 4.836h-20.106c-.925.178-3.53.921-3.53 3.656v24.886c.179.922.925 3.512 3.677 3.512h20.564c2.91 0 5.431 2.08 5.908 4.95 2.114 12.717 7.448 25.916 15.425 38.172 1.558 2.394 1.257 5.543-.764 7.561l-14.516 14.484c-1.579 1.576-1.114 3.729-.171 5.229l17.135 17.686c1.574 1.541 3.709 1.092 5.212.166l14.104-14.073c2.06-2.056 5.277-2.306 7.682-.667 11.171 7.614 24.183 13.12 37.637 15.925 2.807.585 4.84 3.021 4.84 5.888z" fill="#310e31"/></g><g><path d="m84.927 156.013h-19.916c-7.721 0-14.002-6.281-14.002-14.001v-6.607c-5.098-2.084-9.864-4.812-14.241-8.151l-5.99 3.422c-6.643 3.793-15.184 1.505-19.039-5.101l-9.893-16.954c-3.84-6.579-1.482-15.427 5.148-19.214l5.791-3.308c-.706-5.365-.706-10.82 0-16.184l-5.791-3.308c-6.614-3.778-8.997-12.62-5.148-19.214l9.893-16.954c3.856-6.606 12.395-8.894 19.038-5.101l5.99 3.422c4.377-3.34 9.143-6.067 14.241-8.151v-6.607c.001-7.721 6.283-14.002 14.003-14.002h19.916c7.721 0 14.002 6.281 14.002 14.001v6.607c5.097 2.084 9.864 4.812 14.241 8.151l5.99-3.421c6.643-3.795 15.183-1.506 19.039 5.101l9.893 16.954c3.839 6.58 1.482 15.427-5.149 19.214l-5.791 3.308c.706 5.365.706 10.819 0 16.184l5.791 3.308c6.491 3.984 9.094 12.452 5.149 19.214l-9.894 16.954c-3.855 6.606-12.396 8.894-19.038 5.101l-5.99-3.422c-4.377 3.339-9.143 6.067-14.241 8.151v6.607c0 7.72-6.281 14.001-14.002 14.001zm-47.556-42.015c1.424 0 2.837.506 3.958 1.489 5.148 4.514 11.057 7.893 17.563 10.041 2.459.812 4.119 3.109 4.119 5.698v10.786c0 1.103.897 2 2 2h19.916c1.103 0 2-.897 2-2v-10.786c0-2.589 1.66-4.886 4.119-5.698 6.506-2.149 12.415-5.527 17.562-10.041 1.926-1.688 4.71-1.969 6.934-.699l9.571 5.467c.948.544 2.169.215 2.719-.729l9.894-16.954c.517-1.12.272-2.035-.736-2.745l-9.423-5.382c-2.253-1.287-3.424-3.876-2.902-6.418 1.354-6.589 1.354-13.453 0-20.042-.522-2.541.649-5.131 2.902-6.418l9.423-5.382c1.008-.711 1.253-1.625.736-2.745l-9.894-16.954c-.55-.943-1.77-1.27-2.72-.728l-9.571 5.466c-2.224 1.27-5.009.988-6.934-.699-5.147-4.515-11.056-7.893-17.562-10.041-2.459-.812-4.119-3.109-4.119-5.698v-10.785c0-1.103-.897-2-2-2h-19.915c-1.103 0-2 .897-2 2v10.786c0 2.589-1.66 4.886-4.119 5.698-6.506 2.149-12.415 5.527-17.563 10.041-1.925 1.689-4.709 1.97-6.933.699l-9.57-5.467c-.95-.542-2.17-.215-2.72.729l-9.893 16.954c-.517 1.119-.272 2.035.736 2.745l9.423 5.382c2.253 1.287 3.423 3.875 2.902 6.417-1.353 6.59-1.353 13.453 0 20.043.522 2.541-.649 5.13-2.902 6.417l-9.423 5.383c-1.008.711-1.253 1.626-.735 2.745l9.893 16.954c.551.944 1.773 1.271 2.72.729l9.57-5.467c.927-.532 1.954-.791 2.974-.791z" fill="#310e31"/></g><path d="m457.155 341.424c-6.995-14.141-24.876-19.958-38.869-12.55l-87.991 46.572h-9.232c4.437-5.582 6.838-12.451 6.827-19.689-.029-17.416-14.222-31.586-31.639-31.586h-65.949l-33.405-23.903c-7.856-5.621-17.114-8.592-26.773-8.592h-63.459v-11.245c0-3.314-2.687-6-6.001-6h-84.84c-3.314 0-6.001 2.687-6.001 6v138.011c0 3.314 2.687 6 6.001 6h84.84c3.314 0 6.001-2.687 6.001-6v-8.699l10.512.325 131.666 56.268c12.858 5.493 27.861 4.773 40.13-1.927l156.299-85.35c13.465-7.352 18.685-23.884 11.883-37.635zm-362.491 71.018h-72.838v-126.01h72.838zm344.855-43.914-156.298 85.35c-9.204 5.027-20.015 5.546-29.661 1.424l-132.707-56.713c-.688-.294-1.425-.457-2.173-.48l-12.014-.371v-94.06h63.459c7.14 0 13.982 2.196 19.789 6.351l34.971 25.024c1.019.729 2.24 1.121 3.492 1.121h67.875c10.81 0 19.619 8.795 19.637 19.604.023 14.49-12.855 20.108-25.286 19.669-13.112 0-25.917 5.35-35.131 14.677-2.3 2.328-2.278 6.184.052 8.486 2.358 2.329 6.157 2.305 8.486-.052 6.975-7.06 16.667-11.109 26.592-11.109h41.183c.979 0 1.942-.239 2.807-.697l89.308-47.269c8.127-4.303 18.452-.913 22.497 7.264 3.937 7.956.916 17.525-6.878 21.781z" fill="#310e31"/></g><g/><g/><g/><g/><g/><g/><g/><g/><g/><g/><g/><g/><g/><g/><g/></svg>