<?xml version="1.0" encoding="iso-8859-1"?>
<!-- Generator: Adobe Illustrator 26.5.3, SVG Export Plug-In . SVG Version: 6.00 Build 0)  -->
<svg version="1.1" id="Capa_1" xmlns="http://www.w3.org/2000/svg" xmlns:xlink="http://www.w3.org/1999/xlink" x="0px" y="0px"
	 viewBox="0 0 510 510" style="enable-background:new 0 0 510 510;" xml:space="preserve">
<g>
	<g>
		<g>
			<g>
				<g>
					<g>
						<g>
							<path style="fill:#27A2CC;" d="M145.485,444L145.485,444c21.248,0,38.472-17.225,38.472-38.472V344.8h86.086v60.728
								c0,21.248,17.225,38.472,38.472,38.472h0H145.485z"/>
						</g>
						<path style="fill:#FFFFFF;" d="M408.571,344.8H45.429C25.862,344.8,10,328.938,10,309.371V45.429
							C10,25.862,25.862,10,45.429,10h363.143C428.138,10,444,25.862,444,45.429v263.943C444,328.938,428.138,344.8,408.571,344.8z"
							/>
						<path style="fill:#D2DCFD;" d="M100.561,132.086c0-43.665,9.774-85.041,27.226-122.086H45.429C25.862,10,10,25.862,10,45.429
							v263.943c0,19.567,15.862,35.429,35.429,35.429h149.553C136.994,292.316,100.561,216.457,100.561,132.086z"/>
						<path style="fill:#67CCD1;" d="M10,288.114v21.257c0,19.567,15.862,35.429,35.429,35.429h363.143
							c19.567,0,35.429-15.862,35.429-35.429v-21.257H146.69l-30.297,5.121L10,288.114z"/>
						<path style="fill:#27A2CC;" d="M146.69,288.114H10v21.257c0,19.567,15.862,35.429,35.429,35.429h149.553
							C176.542,328.111,160.291,309.053,146.69,288.114z"/>
					</g>
				</g>
			</g>
		</g>
		<g>
			<g>
				<g>
					<g>
						<rect x="77" y="88.114" style="fill:#91B706;" width="68" height="68"/>
						<rect x="193" y="88.114" style="fill:#FDCB50;" width="68" height="68"/>
						<rect x="309" y="88.114" style="fill:#FD7DA0;" width="68" height="68"/>
					</g>
				</g>
			</g>
		</g>
		<g>
			<g>
				<path style="fill:#67CCD1;" d="M476,212H338.678c-13.255,0-24,10.745-24,24v240c0,13.255,10.745,24,24,24H476
					c13.255,0,24-10.745,24-24V236C500,222.745,489.255,212,476,212z"/>
				<path style="fill:#27A2CC;" d="M377.348,344.8c0-49.136,14.823-94.806,40.227-132.8h-78.898c-13.255,0-24,10.745-24,24v240
					c0,13.255,10.745,24,24,24h95.858C398.883,458.221,377.348,404.029,377.348,344.8z"/>
				<polygon style="fill:#FFFFFF;" points="500,456 404.728,456 370.089,444 314.678,456 314.678,256 376.284,259.831 394.383,256 
					500,256 				"/>
				<path style="fill:#D2DCFD;" d="M377.348,344.8c0-31.379,6.052-61.343,17.035-88.8h-79.705v200h90.05
					C387.252,422.775,377.348,384.947,377.348,344.8z"/>
			</g>
		</g>
		<g>
			<g>
				<g>
					<g>
						<rect x="373.339" y="300" style="fill:#91B706;" width="68" height="68"/>
					</g>
				</g>
			</g>
		</g>
	</g>
	<g>
		<path style="fill:#052A75;" d="M136,190.114H86c-5.523,0-10,4.478-10,10s4.477,10,10,10h50c5.523,0,10-4.478,10-10
			S141.523,190.114,136,190.114z"/>
		<path style="fill:#052A75;" d="M202.127,210.114h50c5.523,0,10-4.478,10-10s-4.477-10-10-10h-50c-5.523,0-10,4.478-10,10
			S196.604,210.114,202.127,210.114z"/>
		<path style="fill:#052A75;" d="M136,234.114H86c-5.523,0-10,4.478-10,10s4.477,10,10,10h50c5.523,0,10-4.478,10-10
			S141.523,234.114,136,234.114z"/>
		<path style="fill:#052A75;" d="M202.127,254.114h50c5.523,0,10-4.478,10-10s-4.477-10-10-10h-50c-5.523,0-10,4.478-10,10
			S196.604,254.114,202.127,254.114z"/>
		<path style="fill:#052A75;" d="M476,202h-22V45.429C454,20.379,433.621,0,408.571,0H45.429C20.379,0,0,20.379,0,45.429v263.942
			c0,25.05,20.379,45.429,45.429,45.429h128.528v50.728c0,15.7-12.773,28.473-28.473,28.473h-22.143c-5.523,0-10,4.478-10,10
			s4.477,10,10,10h181.336v22c0,18.748,15.252,34,34,34H476c18.748,0,34-15.252,34-34V236C510,217.252,494.748,202,476,202z
			 M20,309.371V45.429C20,31.407,31.407,20,45.429,20h363.143C422.593,20,434,31.407,434,45.429V202h-95.322
			c-18.748,0-34,15.252-34,34v98.8H45.429C31.407,334.8,20,323.393,20,309.371z M280.043,354.8h24.635v78.934
			c-13.89-1.881-24.635-13.809-24.635-28.207V354.8z M193.957,405.527V354.8h66.086v50.728c0,10.634,3.451,20.472,9.279,28.473
			h-84.644C190.506,425.999,193.957,416.161,193.957,405.527z M490,476c0,7.72-6.28,14-14,14H338.678c-7.72,0-14-6.28-14-14V236
			c0-7.72,6.28-14,14-14H476c7.72,0,14,6.28,14,14V476z"/>
		<path style="fill:#052A75;" d="M432.339,402h-50c-5.523,0-10,4.478-10,10s4.477,10,10,10h50c5.523,0,10-4.478,10-10
			S437.862,402,432.339,402z"/>
	</g>
</g>
<g>
</g>
<g>
</g>
<g>
</g>
<g>
</g>
<g>
</g>
<g>
</g>
<g>
</g>
<g>
</g>
<g>
</g>
<g>
</g>
<g>
</g>
<g>
</g>
<g>
</g>
<g>
</g>
<g>
</g>
</svg>
