<svg clip-rule="evenodd" fill-rule="evenodd" height="128" image-rendering="optimizeQuality" shape-rendering="geometricPrecision" text-rendering="geometricPrecision" viewBox="0 0 146852 165181" width="114" xmlns="http://www.w3.org/2000/svg"><g id="Layer_x0020_1"><g id="_554805520"><path d="m80696 2002 58887 33999c4623 2670 7269 7254 7269 12592v67995c0 5338-2646 9922-7269 12591l-58887 34000c-4623 2669-9916 2669-14540 0l-58887-34000c-4623-2669-7269-7253-7269-12591v-67995c0-5338 2646-9922 7269-12592l58887-33999c4624-2669 9917-2669 14540 0z" fill="#ff576b"/><g><g><path d="m61128 9147h42110c4212 0 7657 3445 7657 7656v93169c0 4211-3445 7657-7657 7657h-42110c-4211 0-7656-3446-7656-7657v-93169c0-4211 3445-7656 7656-7656z" fill="#1c3b5c"/><path d="m56471 24140h51424c160 0 289 130 289 289v77918c0 158-129 288-289 288h-51424c-159 0-289-130-289-288v-77918c0-159 130-289 289-289z" fill="#fff"/></g><g fill="#8e8e93"><path d="m82183 105807c2049 0 3709 1660 3709 3709 0 2048-1660 3709-3709 3709-2048 0-3708-1661-3708-3709 0-2049 1660-3709 3708-3709z"/><path d="m73310 15913c710 0 1286 575 1286 1285 0 711-576 1286-1286 1286-711 0-1286-575-1286-1286 0-710 575-1285 1286-1285z"/><path d="m77976 15923h8773c636 0 1156 520 1156 1156 0 636-520 1156-1156 1156h-8773c-637 0-1157-520-1157-1156 0-636 520-1156 1157-1156z"/></g></g><g><rect fill="#53b4ed" height="21670" rx="5492" width="21670" x="84560" y="28664"/><g fill="#fff"><path d="m95394 31720c2323 0 4206 1882 4206 4205s-1883 4206-4206 4206c-2322 0-4204-1883-4204-4206s1882-4205 4204-4205z"/><path d="m95395 41814c4370 0 8048 2968 9127 6998-987 941-2321 1522-3785 1522h-10685c-1463 0-2797-581-3785-1522 1080-4030 4757-6998 9128-6998z"/></g></g><g><rect fill="#ff576b" height="21670" rx="5492" width="21670" x="60479" y="54778"/><path d="m68702 60157 6669 5456-6669 5456z" fill="#fff"/></g><g><rect fill="#72cf7b" height="21670" rx="5492" width="21670" x="60479" y="28664"/><g fill="#fff"><path d="m64542 33436h13542v2031h-13542z"/><path d="m64542 38483h13542v2031h-13542z"/><path d="m64542 43530h8310v2031h-8310z"/></g></g><g><rect fill="#ffc42e" height="21670" rx="5492" width="21670" x="84560" y="54361"/><g fill="#fff"><path d="m90290 67214c410 0 799 91 1148 252-244 699-387 1555-387 2478 0 924 143 1779 387 2478-349 162-738 253-1148 253-1507 0-2730-1223-2730-2731 0-1507 1223-2730 2730-2730zm10209 0c-410 0-799 91-1148 252 244 699 387 1555 387 2478 0 924-143 1779-387 2478 349 162 738 253 1148 253 1508 0 2731-1223 2731-2731 0-1507-1223-2730-2731-2730z"/><path d="m89361 66953v-3854c0-2601 1568-4254 3580-4974 764-273 1597-410 2430-409 834 1 1668 139 2434 413 2032 726 3624 2388 3624 4970v3854h-985v-3854c0-2095-1304-3448-2970-4043-665-238-1386-358-2103-359-717 0-1437 118-2100 355-1643 588-2925 1934-2925 4047v3854z" fill-rule="nonzero"/></g></g><path d="m53472 45731-13166 12361-10759 16849c-1586 2483-2299 5027-2234 7973l979 44424-5204 10975 28000 16166 6767-20334c9724-8748 12595-19770 12577-33261-18-12926-978-32164-978-32164s-9417-1734-10601 10576l-1159 12048-5432-357-1751-23100 2961-4923z" fill="#ffc578"/><path d="m63860 146613-46109-16131-1382 3951 42959 24804z" fill="#154e5e"/><path d="m62718 140238-39698-13888-1863 5323 39699 13888z" fill="#fff"/><path d="m68343 68636c-884 22311 3100 47023-11079 63951l-718 5492 1309-3934c9724-8747 12595-19770 12577-33261-18-12926-978-32164-978-32164s-428-79-1111-84z" fill="#f7b360"/></g></g></svg>