<svg clip-rule="evenodd" fill-rule="evenodd" height="128" image-rendering="optimizeQuality" shape-rendering="geometricPrecision" text-rendering="geometricPrecision" viewBox="0 0 20784 20784" width="128" xmlns="http://www.w3.org/2000/svg"><g id="Layer_x0020_1"><g id="_632970304"><circle cx="10392" cy="10392" fill="#1c3b5c" r="10392"/><g><g><g><path d="m10392 4997c-2314 0-4190 1876-4190 4190 0 1388 676 2619 1716 3381 599 782 380 2468 765 2839h1709 1709c385-371 166-2057 765-2839 1040-762 1716-1993 1716-3381 0-2314-1876-4190-4190-4190z" fill="#ffc42e"/><path d="m8683 15407h3418v1707c0 438-359 796-797 796h-1824c-438 0-797-358-797-796z" fill="#8e8e93"/><path d="m11325 17910c0 135-418 244-933 244s-933-109-933-244z" fill="#e1e3e8"/><path d="m10392 4997c-157 0-312 9-464 26 2096 231 3726 2007 3726 4164 0 1388-676 2619-1716 3381-599 782-380 2468-765 2839h928c385-371 166-2057 765-2839 1040-762 1716-1993 1716-3381 0-2314-1876-4190-4190-4190z" fill="#f2b22e"/><g fill="#e1e3e8"><rect height="522" rx="282" ry="261" width="4065" x="8360" y="15343"/><rect height="522" rx="268" ry="261" width="3859" x="8463" y="16981"/><rect height="522" rx="268" ry="261" width="3859" x="8463" y="16191"/></g></g><path d="m11536 6046-2128 2166 840 381-778 2005 2148-2178-858-391z" fill="#fff"/></g><g fill="#fff" fill-rule="nonzero"><path d="m5751 11122c-397 606-708 1172-920 1671-360 849-432 1486-142 1775 388 389 1374 139 2653-579 1337-751 2964-2015 4563-3614s2863-3226 3614-4564c718-1279 968-2264 580-2653-287-286-916-218-1755 135-706 296-1593 824-2494 1481-258 188-441-75-312-206 982-730 1899-1280 2669-1603 977-411 1742-459 2143-58 515 515 278 1654-521 3078-767 1365-2051 3020-3673 4641-1621 1621-3276 2906-4641 3672-1424 800-2562 1037-3077 521-404-403-352-1175 67-2163 212-501 519-1064 909-1665 5-4 273-203 337 131z"/><path d="m15033 11122c397 606 708 1172 920 1671 360 849 432 1486 142 1775-388 389-1374 139-2653-579-1337-751-2964-2015-4563-3614s-2863-3226-3614-4564c-718-1279-968-2264-579-2653 286-286 915-218 1754 135 706 296 1593 824 2494 1481 258 188 442-75 312-206-982-730-1899-1280-2668-1603-978-411-1743-459-2144-58-515 515-278 1654 521 3078 767 1365 2052 3020 3673 4641s3276 2906 4641 3672c1424 800 2562 1037 3078 521 403-403 351-1175-68-2163-212-501-519-1064-909-1665-5-4-273-203-337 131z"/><path d="m15272 7043c710 148 1329 328 1832 531 855 346 1356 745 1356 1155 0 549-873 1070-2285 1466-1477 415-3522 671-5783 671s-4305-256-5782-671c-1412-396-2286-917-2286-1466 0-406 493-802 1336-1146 709-289 1710-543 2811-716 315-50 259-365 75-366-1211 178-2248 438-3021 753-981 401-1556 908-1556 1475 0 729 972 1366 2544 1808 1508 423 3586 685 5879 685s4371-262 5879-685c1572-442 2544-1079 2544-1808 0-571-583-1080-1577-1483-504-204-1119-384-1820-534-7 1-337 50-146 331z"/></g><g><circle cx="16027" cy="5185" fill="#ff576b" r="952"/><path d="m15076 5185c0 526 426 952 951 952 526 0 952-426 952-952s-426-952-952-952c-36 0-71 2-106 6 370 47 656 362 656 745 0 414-336 750-751 750-382 0-698-286-744-656-4 36-6 71-6 107z" fill="#e64e60"/></g><g><circle cx="3678" cy="7461" fill="#ffc42e" r="952"/><path d="m2726 7461c0 526 426 952 952 952 525 0 952-426 952-952s-427-952-952-952c-36 0-72 2-107 6 370 46 656 362 656 745 0 414-336 750-751 750-382 0-698-286-744-656-4 35-6 71-6 107z" fill="#f2b22e"/></g><g><circle cx="13977" cy="14493" fill="#82c9f2" r="952"/><path d="m13025 14493c0 526 426 952 952 952s952-426 952-952c0-525-426-952-952-952-36 0-72 2-107 6 370 47 656 362 656 745 0 414-336 750-750 750-383 0-698-286-745-655-4 35-6 70-6 106z" fill="#53b4ed"/></g></g></g></g></svg>