<svg id="Layer_1" viewBox="0 0 48 48" xmlns="http://www.w3.org/2000/svg" data-name="Layer 1"><rect fill="#c6c3d8" height="32.46" rx="3.44" width="41.32" x="1.37" y=".39"/><path d="m14.16 38.76h15.74a2 2 0 0 1 2 2v1a0 0 0 0 1 0 0h-19.7a0 0 0 0 1 0 0v-1a2 2 0 0 1 1.96-2z" fill="#687d94"/><path d="m29.02 38.76h-13.77l1.72-12.79h10.33z" fill="#3b506d"/><path d="m42.69 26v3.44a3.45 3.45 0 0 1 -3.44 3.44h-34.43a3.45 3.45 0 0 1 -3.45-3.44v-3.44z" fill="#c6c3d8"/><path d="m40.72 4.08v22.13a1.7 1.7 0 0 1 -1.67 1.72h-34.05a1.71 1.71 0 0 1 -1.68-1.72v-22.13a1.71 1.71 0 0 1 1.68-1.72h34a1.7 1.7 0 0 1 1.72 1.72z" fill="#fff"/><rect fill="#687d94" height="29.51" rx="1.97" width="19.67" x="26.95" y="18.1"/><path d="m44.66 20.07v25.57h-15.74v-25.57h3.93a2 2 0 0 0 2 2h3.94a2 2 0 0 0 2-2z" fill="#edebf2"/><circle cx="36.79" cy="32.85" fill="#92c65c" r="5.9"/><path d="m39.8 29.93-3.99 3.98-2-2.01-1.4 1.4 2.01 2 1.39 1.4 1.39-1.4 3.99-3.98z" fill="#fff"/><path d="m22 15.15a7 7 0 0 0 -.18-1.6l1.94-1.13-2-3.4-2 1.13a6.56 6.56 0 0 0 -2.76-1.6v-2.26h-3.82v2.26a6.63 6.63 0 0 0 -2.76 1.6l-1.95-1.15-2 3.4 1.95 1.13a6.49 6.49 0 0 0 -.19 1.6 6.41 6.41 0 0 0 .19 1.59l-1.92 1.15 2 3.41 1.95-1.14a6.75 6.75 0 0 0 2.76 1.61v2.25h3.93v-2.25a6.69 6.69 0 0 0 2.76-1.61l2 1.14 2-3.41-1.94-1.13a6.92 6.92 0 0 0 .04-1.59zm-3.93 0a3.05 3.05 0 0 1 -.06.6 2.87 2.87 0 0 1 -.93 1.59 2.77 2.77 0 0 1 -1.05.61 2.71 2.71 0 0 1 -.91.15 3 3 0 0 1 -2-.76 2.93 2.93 0 0 1 -.93-1.59 3 3 0 0 1 -.05-.6 2.92 2.92 0 0 1 .05-.6 3 3 0 0 1 .93-1.6 2.9 2.9 0 0 1 1.05-.61 2.77 2.77 0 0 1 .92-.14 2.71 2.71 0 0 1 .91.14 2.9 2.9 0 0 1 1.05.61 2.91 2.91 0 0 1 1 2.2z" fill="#687d94"/><g fill="#c6c3d8"><path d="m25.97 6.29h7.87v1.97h-7.87z"/><path d="m35.8 6.29h1.97v1.97h-1.97z"/><path d="m25.97 10.23h3.93v1.97h-3.93z"/><path d="m31.87 10.23h5.9v1.97h-5.9z"/><path d="m25.97 14.16h5.9v1.97h-5.9z"/><path d="m33.84 14.16h3.93v1.97h-3.93z"/></g></svg>