<svg id="Layer_1" enable-background="new 0 0 512 512" height="512" viewBox="0 0 512 512" width="512" xmlns="http://www.w3.org/2000/svg"><g><path d="m452.662 413.129c30.365-40.798 48.34-91.364 48.34-146.131 0-135.311-109.691-245.002-245.002-245.002s-245.002 109.691-245.002 245.002c0 61.868 22.941 118.37 60.768 161.489z" fill="#4fabf7"/><path d="m256 512c63.781 0 121.863-24.379 165.454-64.318l-38.629-38.628c-8.772-8.773-8.772-23.047 0-31.82 8.795-8.794 23.027-8.793 31.82 0l18.777 18.777v-269.11c-8.139-35.437-46.749-37.608-47.245-37.628h-34.396c-4.215 0-7.631-3.417-7.631-7.631v-36.854c-.135-6.802-2.518-37.479-33.828-44.742-.111-.012-.293-.033-.404-.046h-223.965c-7.836 0-14.188 6.352-14.188 14.188v414.3c44.906 51.187 110.792 83.512 184.235 83.512z" fill="#4b6bb2"/><path d="m167.829 0h-81.876c-7.836 0-14.188 6.352-14.188 14.188v414.3c25.419 28.976 57.566 51.9 93.996 66.345-3.041-9.332 2.067-18.73 2.067-18.73v-15c-9.671-12.731 0-25.544 0-25.544v-15c-8.671-13.066 0-25.544 0-25.544v-15c-11.078-11.078 0-25.544 0-25.544v-15c-5.855-7.894-4.025-16.428-2.076-21.362 1.329-3.363 2.076-6.927 2.076-10.542v-1.151c0-4.018-.829-8.009-2.538-11.646-3.254-6.923-1.64-13.3.142-17.256 1.604-3.562 2.396-7.431 2.396-11.337 0-4.214-.995-8.357-2.785-12.172-3.13-6.67-1.419-13.06.4-17.042 1.62-3.545 2.385-7.42 2.385-11.317v-.159c0-4.121-.901-8.199-2.667-11.923-5.381-11.34 2.667-21.27 2.667-21.27v-15c-10.505-13.538 0-25.544 0-25.544v-15c-8.838-12.416 0-25.544 0-25.544v-15c-21.838-17.793-7.5-39.935-7.5-39.935v-15c-14.67-24.976 7.501-41.271 7.501-41.271z" fill="#3c58a0"/><g><path d="m242.595 111.207h-104.161c-4.142 0-7.5-3.358-7.5-7.5s3.358-7.5 7.5-7.5h104.161c4.142 0 7.5 3.358 7.5 7.5s-3.358 7.5-7.5 7.5z" fill="#6087cc"/></g><g><path d="m156.924 56.273h-18.49c-4.142 0-7.5-3.358-7.5-7.5s3.358-7.5 7.5-7.5h18.49c4.142 0 7.5 3.358 7.5 7.5s-3.358 7.5-7.5 7.5z" fill="#e9efff"/></g><g><path d="m364.634 151.751h-226.2c-4.142 0-7.5-3.358-7.5-7.5s3.358-7.5 7.5-7.5h226.2c4.142 0 7.5 3.358 7.5 7.5s-3.358 7.5-7.5 7.5z" fill="#6087cc"/></g><g><path d="m340.188 395.015h-201.754c-4.142 0-7.5-3.358-7.5-7.5s3.358-7.5 7.5-7.5h201.754c4.142 0 7.5 3.358 7.5 7.5s-3.358 7.5-7.5 7.5z" fill="#6087cc"/></g><g><path d="m364.634 435.559h-226.2c-4.142 0-7.5-3.358-7.5-7.5s3.358-7.5 7.5-7.5h226.2c4.142 0 7.5 3.358 7.5 7.5s-3.358 7.5-7.5 7.5z" fill="#6087cc"/></g><g><path d="m295.844 476.103h-157.41c-4.142 0-7.5-3.358-7.5-7.5s3.358-7.5 7.5-7.5h157.41c4.142 0 7.5 3.358 7.5 7.5s-3.358 7.5-7.5 7.5z" fill="#6087cc"/></g><g><path d="m173.024 192.295h-34.59c-4.142 0-7.5-3.358-7.5-7.5s3.358-7.5 7.5-7.5h34.59c4.142 0 7.5 3.358 7.5 7.5s-3.358 7.5-7.5 7.5z" fill="#6087cc"/></g><g><path d="m150.229 232.839h-11.795c-4.142 0-7.5-3.358-7.5-7.5s3.358-7.5 7.5-7.5h11.795c4.142 0 7.5 3.358 7.5 7.5s-3.358 7.5-7.5 7.5z" fill="#6087cc"/></g><g><path d="m144.434 273.383h-6c-4.142 0-7.5-3.358-7.5-7.5s3.358-7.5 7.5-7.5h6c4.142 0 7.5 3.358 7.5 7.5s-3.358 7.5-7.5 7.5z" fill="#6087cc"/></g><g><path d="m150.229 313.927h-11.795c-4.142 0-7.5-3.358-7.5-7.5s3.358-7.5 7.5-7.5h11.795c4.142 0 7.5 3.358 7.5 7.5s-3.358 7.5-7.5 7.5z" fill="#6087cc"/></g><g><path d="m173.024 354.471h-34.59c-4.142 0-7.5-3.358-7.5-7.5s3.358-7.5 7.5-7.5h34.59c4.142 0 7.5 3.358 7.5 7.5s-3.358 7.5-7.5 7.5z" fill="#6087cc"/></g><path d="m351.245 360.266c-1.173 1.173-2.445 2.186-3.777 3.071l28.806 28.806c.535-5.314 2.835-10.484 6.906-14.555s9.241-6.371 14.555-6.906l-28.806-28.806c-.886 1.331-1.898 2.603-3.071 3.776z" fill="#a3b3ef"/><path d="m344.71 192.648c-40.796-40.796-107.158-40.444-147.512 1.056-38.578 39.673-38.947 103.429-.805 143.521 27.762 29.181 68.213 38.541 104.12 28.087 8.132-2.367 16.929-1.967 24.676 1.455 9.031 3.989 20.057 2.325 27.469-5.087l14.614-14.614c7.424-7.424 9.074-18.452 5.082-27.478-3.444-7.788-3.78-16.623-1.411-24.803 10.163-35.084 1.421-74.483-26.233-102.137z" fill="#e9efff"/><path d="m370.043 312.124c-.662-.038-1.334.082-1.957.361-11.035 4.95-17.521-1.054-20.262-4.749-.987-1.33-2.69-1.916-4.286-1.474-6.274 1.738-9.656-1.582-11.198-3.942-.812-1.243-2.273-1.898-3.751-1.749-37.264 3.763-43.177-25.184-43.177-25.184l-16.387 1.113-19.544-18.81c-23.358-8.744-23.506-31.751-22.543-41.004.211-2.027-1.156-3.866-3.141-4.327-4.884-1.134-6.44-4.508-6.9-7.048-.309-1.704-1.618-3.026-3.324-3.32-7.794-1.343-9.614-7.606-9.993-11.376-.081-.809-.42-1.539-.923-2.129-1.866 1.662-3.688 3.398-5.458 5.218-38.578 39.673-38.947 103.429-.805 143.521 27.762 29.181 68.213 38.541 104.12 28.087 8.132-2.367 16.929-1.967 24.676 1.455 9.031 3.989 20.057 2.325 27.469-5.087l14.614-14.614c7.424-7.424 9.074-18.452 5.082-27.478-1.064-2.404-1.829-4.91-2.312-7.464z" fill="#d3dcfb"/><circle cx="271.475" cy="265.883" fill="#73c3f9" r="76.57"/><path d="m217.332 320.026c29.855 29.855 78.432 29.854 108.287 0 4.306-4.306 7.97-9.01 11.034-13.983-2.09-.884-3.475-2.443-4.312-3.724-.812-1.243-2.273-1.898-3.751-1.749-37.264 3.763-43.177-25.184-43.177-25.184l-16.387 1.113-19.544-18.81c-23.358-8.744-23.506-31.751-22.543-41.004.211-2.027-1.156-3.866-3.141-4.327-2.067-.48-3.534-1.364-4.578-2.413-.633.592-1.27 1.176-1.887 1.793-29.856 29.856-29.856 78.434-.001 108.288z" fill="#4fabf7"/><g><path d="m212.029 325.33c-32.779-32.779-32.779-86.115 0-118.894s86.115-32.779 118.893 0c32.779 32.779 32.779 86.115 0 118.894-32.776 32.777-86.113 32.78-118.893 0zm10.606-108.287c-26.931 26.931-26.931 70.75 0 97.681 26.931 26.93 70.75 26.93 97.68 0 26.931-26.931 26.931-70.75 0-97.681s-70.748-26.931-97.68 0z" fill="#9bd8f9"/></g><path d="m212.029 325.33c32.78 32.78 86.117 32.777 118.893 0 5.813-5.813 10.573-12.28 14.325-19.156-.558-.091-1.14-.069-1.708.088-6.274 1.738-9.656-1.582-11.198-3.942-.359-.549-.849-.976-1.406-1.277-2.887 4.884-6.426 9.487-10.619 13.68-26.931 26.93-70.75 26.93-97.68 0-26.93-26.931-26.93-70.75 0-97.681 1.123-1.123 2.285-2.181 3.465-3.211-.561-.715-1.358-1.253-2.303-1.472-4.884-1.134-6.44-4.508-6.9-7.048-.163-.899-.609-1.685-1.241-2.277-1.232 1.095-2.446 2.221-3.627 3.402-32.781 32.779-32.781 86.115-.001 118.894z" fill="#73c3f9"/><g><path d="m266.436 291.257c-1.989 0-3.897-.79-5.303-2.197l-18.582-18.583c-2.904-2.904-3.198-7.674-.383-10.663 2.914-3.094 7.785-3.148 10.767-.165l12.287 12.287c.671.671 1.758.671 2.429 0l24.994-24.994c2.904-2.904 7.674-3.199 10.664-.384 3.094 2.913 3.149 7.784.166 10.767l-31.735 31.735c-1.407 1.407-3.314 2.197-5.304 2.197z" fill="#e9efff"/></g><path d="m410.279 67.628-44.483-44.483c-14.82-14.819-34.919-23.145-55.877-23.145h-14.075c43.793 0 46.662 37.532 46.806 44.818v36.824c0 5.043 4.088 9.131 9.131 9.131h34.397s47.245 2.1 47.245 50.1v-17.368c0-20.959-8.325-41.058-23.144-55.877z" fill="#f7f7f7"/><path d="m396.622 53.972-30.827-30.827c-14.819-14.819-34.918-23.145-55.876-23.145h-14.075c43.793 0 46.662 37.532 46.806 44.818v36.824c0 5.043 4.088 9.131 9.131 9.131h20.352c-5.46-32.895 24.489-36.801 24.489-36.801z" fill="#e9efff"/><path d="m415.707 376.174c-9.373-9.373-24.568-9.373-33.941 0s-9.373 24.569 0 33.941l38.581 38.581c11.892-10.763 22.722-22.677 32.315-35.567z" fill="#ff7186"/><path d="m409.433 405.115c-9.259-9.259-9.354-24.192-.319-33.588-8.928-4.284-19.948-2.752-27.348 4.647-9.373 9.373-9.373 24.569 0 33.941l38.581 38.581c5.712-5.17 11.172-10.612 16.374-16.293z" fill="#ff4155"/><path d="m487.882 187.716c-11.126 13.913-17.813 31.51-17.813 50.603v65.205c0 17.973 5.92 34.625 15.894 48.123 9.719-26.382 15.04-54.892 15.04-84.649-.001-27.747-4.621-54.414-13.121-79.282z" fill="#73c3f9"/><path d="m26.037 351.647c9.974-13.498 15.894-30.15 15.894-48.123v-65.205c0-19.093-6.687-36.69-17.813-50.603-8.501 24.868-13.121 51.535-13.121 79.282.001 29.757 5.321 58.267 15.04 84.649z" fill="#73c3f9"/><path d="m330.922 206.436c-10.196-10.196-22.383-17.211-35.321-21.06-4.545-1.352-9.18 1.857-9.574 6.582-.297 3.56 1.969 6.796 5.391 7.821 10.584 3.17 20.552 8.918 28.898 17.263 8.998 8.998 14.977 19.884 17.958 31.393.94 3.631 4.491 5.954 8.21 5.464h.002c4.437-.584 7.423-4.91 6.301-9.242-3.628-14.013-10.91-27.266-21.865-38.221z" fill="#c0ecff"/></g></svg>